PathFileType	3	(X/Y/Z)	C:\Users\koon_\Desktop\
DataRate	CameraRate	NumFrames	NumMarkers	Units	OrigDataRate	OrigDataStartFrame	OrigNumFrames
100.0	100.0	10	27	mm	100.0	1743	2788	
Frame#	Time	get:LFHD			get:RFHD			get:LBHD			get:RBHD			get:C7			get:T10			get:CLAV			get:STRN			get:RBAK			get:LSHO			get:LUPA			get:LELB			get:LFRA			get:LWRA			get:LWRB			get:LFIN			get:RSHO			get:RUPA			get:RELB			get:RFRA			get:RWRA			get:RWRB			get:RFIN			get:LASI			get:RASI			get:LPSI			get:RPSI			
		X1	Y1	Z1	X2	Y2	Z2	X3	Y3	Z3	X4	Y4	Z4	X5	Y5	Z5	X6	Y6	Z6	X7	Y7	Z7	X8	Y8	Z8	X9	Y9	Z9	X10	Y10	Z10	X11	Y11	Z11	X12	Y12	Z12	X13	Y13	Z13	X14	Y14	Z14	X15	Y15	Z15	X16	Y16	Z16	X17	Y17	Z17	X18	Y18	Z18	X19	Y19	Z19	X20	Y20	Z20	X21	Y21	Z21	X22	Y22	Z22	X23	Y23	Z23	X24	Y24	Z24	X25	Y25	Z25	X26	Y26	Z26	X27	Y27	Z27	
1743	17.42	266.72974	1489.5734	-126.88934	126.57589	1532.748	-120.59307	255.83398	1481.3782	-264.81494	109.08793	1520.0603	-251.69119	102.83552	1309.3031	-282.45364	35.771915	1100.8021	-298.85852	120.80896	1224.1093	-85.664726	78.694656	1078.6476	-34.127537	-10.372739	1271.8905	-279.95938	267.97372	1252.8363	-239.28645	282.961	1045.1466	-162.17526	290.93515	922.44641	-197.82417	279.08926	883.50818	-105.62696	224.52734	723.44055	-50.741341	292.97702	712.04236	-80.865013	268.6539	647.05023	-37.39756	1.3836491	1360.9208	-152.85626	-92.136513	1265.7191	-98.989815	-186.84995	1063.2814	-109.95149	-144.05754	918.51935	-43.912868	-149.59804	821.93658	-33.90884	-219.12454	847.97791	-31.514328	-188.82832	764.61469	-0.75500196	161.81889	902.15778	-93.552971	-129.82126	936.62646	-70.814796	51.406338	914.00671	-271.64114	-35.04652	920.88953	-267.89655
1744	17.43	271.93472	1487.7184	-124.34805	132.12619	1532.1304	-118.65903	261.65939	1479.8678	-262.3522	115.20299	1519.7544	-249.94984	106.79008	1309.4558	-281.01193	37.821037	1101.8191	-298.50006	123.50948	1222.9453	-84.627739	80.071426	1077.8412	-33.728016	-6.8321638	1273.1309	-278.84601	271.33243	1251.3883	-237.62314	285.34937	1043.2904	-161.48776	293.10242	920.73193	-197.66078	281.19385	881.49396	-105.69451	226.2851	721.57593	-51.130287	294.47891	709.95093	-81.626457	270.27414	644.99017	-38.20314	5.6158686	1361.4441	-151.26994	-88.814568	1266.8008	-97.940208	-185.12955	1065.1597	-110.01367	-143.39482	919.55835	-44.93198	-149.52557	823.34521	-34.96674	-218.94786	849.66858	-32.799927	-189.27081	766.1189	-2.2436764	162.21204	901.79889	-93.974838	-129.24066	937.50763	-71.93483	52.219627	914.62579	-272.30603	-34.248871	921.89246	-268.83746
1745	17.44	277.01437	1485.7513	-121.88926	137.62712	1531.46	-116.75571	267.45197	1478.2588	-259.91504	121.23915	1519.4386	-248.04401	110.59696	1309.6953	-279.4892	39.929379	1102.7322	-298.19922	126.2291	1222.0032	-83.577278	81.352203	1077.0992	-33.366886	-3.326308	1274.2679	-277.54059	274.55075	1249.9332	-236.12926	287.66312	1041.4442	-160.86635	295.58243	919.20599	-197.70633	283.31567	879.49878	-105.79834	228.05328	719.66351	-51.558575	296.07092	707.86615	-82.334816	271.94473	643.00018	-38.925148	9.838191	1361.8627	-149.44576	-85.478226	1267.8512	-96.843422	-183.43526	1066.9963	-110.1556	-142.8622	920.65729	-45.869728	-149.5898	825.19403	-35.62072	-218.86728	851.30072	-34.008572	-189.67853	767.64044	-3.5630085	162.38197	901.45074	-94.415283	-128.70998	938.34967	-73.023987	53.070881	915.39838	-273.13519	-33.424171	922.77557	-269.82983
1746	17.45	282.03748	1483.7114	-119.35403	143.05435	1530.7684	-114.93486	273.15674	1476.6014	-257.50833	127.23718	1519.1187	-246.29504	114.44854	1309.8118	-278.27148	41.920998	1103.6923	-297.96979	128.91493	1221.0857	-82.536301	82.622871	1076.3278	-33.0508	0.12314887	1275.3813	-276.37698	277.71588	1248.4871	-234.62213	289.94894	1039.6406	-160.38487	297.66644	917.56567	-197.78928	285.32718	877.55151	-105.99744	229.74612	717.88861	-51.971088	297.44684	705.81818	-83.150536	273.51273	641.05005	-39.650429	13.951823	1362.2721	-147.87599	-82.239265	1268.8806	-95.834244	-181.82904	1068.9166	-109.64796	-142.22792	921.79828	-46.655441	-149.62689	826.57373	-36.744911	-218.75327	853.00818	-35.191666	-190.03377	769.1192	-4.9341545	162.66301	901.08618	-94.902481	-128.22792	939.27637	-73.998192	53.784992	915.98438	-273.86386	-32.715092	923.5871	-270.54941
1747	17.46	286.90045	1481.6563	-116.86563	148.36841	1530.0011	-113.04588	278.77066	1474.8715	-255.05978	133.13318	1518.775	-244.53065	118.11023	1309.9088	-276.61462	43.962044	1104.4882	-297.61426	131.44951	1220.1898	-81.547073	83.766151	1075.5562	-32.833855	3.3881159	1276.6862	-274.96146	280.77838	1247.0542	-233.17769	292.10861	1037.8607	-159.8819	299.71524	915.93774	-197.90329	287.39462	875.62311	-106.20956	231.35738	716.1709	-52.398281	298.93619	703.82001	-84.061058	275.12012	639.19037	-40.475422	17.932528	1362.7137	-146.46608	-79.036041	1269.9117	-94.839592	-180.14357	1070.7694	-109.52845	-141.58099	922.94324	-47.498569	-149.65656	827.92029	-37.88253	-218.62236	854.73108	-36.273876	-190.42731	770.65564	-6.2286601	162.65953	900.76349	-95.43454	-127.72596	940.21381	-74.99041	54.478359	916.57452	-274.58215	-31.994253	924.6712	-271.56305
1748	17.47	291.65552	1479.5659	-114.29968	153.56302	1529.1217	-111.29144	284.314	1473.0673	-252.59778	139.06989	1518.22	-242.95056	121.86375	1309.8678	-275.28192	45.856041	1105.4833	-297.5069	133.82794	1219.1431	-80.568306	84.776535	1074.8799	-32.57584	6.8796263	1277.5419	-273.98199	283.754	1245.6315	-231.72462	294.20105	1036.1011	-159.47607	301.36356	914.13232	-198.05086	289.31958	873.73755	-106.59922	233.02315	714.42194	-52.897034	300.34656	701.87354	-85.000298	276.66843	637.3045	-41.278431	21.891567	1363.0211	-144.84978	-75.918068	1270.9197	-93.912361	-178.51648	1072.5953	-109.49489	-140.98862	924.05847	-48.257278	-149.67633	829.26709	-39.16777	-218.45639	856.44464	-37.261486	-190.69336	772.09949	-7.6667342	162.72592	900.44556	-96.011719	-127.36089	941.16589	-75.938347	55.042637	917.16742	-275.28513	-31.473667	925.54449	-272.48233
1749	17.48	296.31659	1477.4386	-111.7347	158.59369	1528.1752	-109.49165	289.76196	1471.1888	-250.04652	144.82954	1517.635	-241.30663	125.4837	1309.4259	-273.09888	47.734528	1106.2317	-297.211	136.20425	1218.1458	-79.583969	85.796051	1074.0334	-32.29261	10.122944	1278.7875	-272.91919	286.64175	1244.1614	-230.31596	296.27225	1034.3219	-159.15364	303.23572	912.55048	-198.41333	291.25879	871.81635	-107.05371	234.68747	712.32776	-53.650501	301.67899	699.93268	-85.910774	278.20102	635.49493	-42.109795	25.790766	1363.408	-143.69299	-72.914268	1271.9049	-93.007469	-176.88275	1074.3217	-109.63512	-140.47774	925.24835	-48.978477	-149.73003	830.61646	-40.321625	-218.36789	858.1369	-38.228035	-191.05896	773.63947	-8.9510145	162.46869	900.09357	-96.729385	-127.01918	942.13031	-76.855751	55.538361	917.75836	-276.15787	-30.937199	926.28436	-273.35593
1750	17.49	300.87323	1475.2646	-109.09613	163.3208	1527.1158	-107.83971	295.08194	1469.1075	-247.41141	150.56317	1516.8167	-239.65392	129.01263	1309.4711	-271.79404	49.538013	1107.0796	-297.04816	138.52011	1217.0594	-78.710152	86.706795	1073.2489	-31.983301	13.42744	1279.9149	-272.19031	289.46045	1242.621	-228.98228	298.29709	1032.4844	-158.82933	305.3143	911.00293	-198.76837	293.13535	869.8678	-107.52229	236.56459	710.84229	-54.220558	303.08508	697.95135	-86.929344	279.73859	633.58667	-42.998302	29.650307	1363.5762	-142.0571	-69.945	1272.8398	-92.134079	-175.46144	1076.2363	-109.3226	-139.9239	926.43958	-49.75106	-149.85077	831.97809	-41.419937	-218.32355	859.84155	-39.173916	-191.45659	775.10931	-10.09108	162.50655	899.87006	-97.325005	-126.64576	942.99719	-77.888374	55.87215	918.31641	-276.91586	-30.557795	927.21838	-274.14316
1751	17.5	305.17456	1473.072	-106.49681	168.02156	1526.0167	-106.1628	300.41577	1467.0856	-244.78256	156.28996	1515.9279	-238.14432	132.48289	1309.48	-270.73151	51.343716	1107.8456	-296.85098	140.70702	1215.9711	-77.726563	87.605751	1072.4678	-31.788502	16.615664	1280.8158	-271.02817	292.16663	1240.9855	-227.60674	300.21985	1030.5398	-158.6161	306.99133	909.27057	-199.23506	294.97873	867.87634	-108.03963	238.52972	709.15491	-54.673431	304.40518	695.84998	-87.918701	281.27097	631.63934	-43.887535	33.474724	1363.7257	-140.55557	-67.003571	1273.7344	-91.293228	-174.00645	1078.022	-109.2019	-139.39061	927.52551	-50.497952	-149.98837	833.33282	-42.484505	-218.33583	861.51123	-40.081264	-191.91772	776.56799	-11.499527	162.5584	899.60052	-97.992958	-126.30214	943.88727	-78.759354	56.217606	919.10699	-277.99677	-30.156185	928.07233	-274.97687
1752	17.51	309.36795	1470.8365	-103.75095	172.64252	1524.9557	-104.58673	305.71024	1464.9767	-242.11774	161.97934	1514.9847	-236.53561	135.85544	1309.4271	-269.57288	53.02739	1108.6105	-296.70309	142.92323	1214.8806	-76.964394	88.450241	1071.6593	-31.445007	19.717421	1282.0663	-270.87213	294.73541	1239.2938	-226.4122	302.1196	1028.553	-158.35822	308.49847	907.47296	-199.66331	296.73611	865.77106	-108.57435	239.96362	707.06433	-55.09988	305.59088	693.72229	-88.983414	282.71066	629.56042	-44.781849	37.169434	1363.9302	-139.25333	-64.1465	1274.5815	-90.424904	-172.6702	1079.7648	-109.27938	-139.09785	928.51031	-50.79628	-150.14941	834.67804	-43.579468	-218.33896	863.21387	-40.903042	-192.36238	778.06366	-12.554175	162.61618	899.30756	-98.691605	-125.94494	944.72925	-79.642982	56.522514	919.76318	-278.7963	-29.88504	928.77026	-275.88571
